<?xml version="1.0" encoding="UTF-8" standalone="no"?>
<svg
   xmlns:dc="http://purl.org/dc/elements/1.1/"
   xmlns:cc="http://creativecommons.org/ns#"
   xmlns:rdf="http://www.w3.org/1999/02/22-rdf-syntax-ns#"
   xmlns:svg="http://www.w3.org/2000/svg"
   xmlns="http://www.w3.org/2000/svg"
   xmlns:sodipodi="http://sodipodi.sourceforge.net/DTD/sodipodi-0.dtd"
   xmlns:inkscape="http://www.inkscape.org/namespaces/inkscape"
   x="0px"
   y="0px"
   width="1792px"
   height="1792px"
   viewBox="0 0 1792 1792"
   enable-background="new 0 0 1792 1792"
   xml:space="preserve"
   version="1.1"
   id="svg10"
   sodipodi:docname="number_12.svg"
   inkscape:version="0.92.3 (2405546, 2018-03-11)"><metadata
   id="metadata16"><rdf:RDF><cc:Work
       rdf:about=""><dc:format>image/svg+xml</dc:format><dc:type
         rdf:resource="http://purl.org/dc/dcmitype/StillImage" /><dc:title></dc:title></cc:Work></rdf:RDF></metadata><defs
   id="defs14">
	
	
</defs><sodipodi:namedview
   pagecolor="#ffffff"
   bordercolor="#666666"
   borderopacity="1"
   objecttolerance="10"
   gridtolerance="10"
   guidetolerance="10"
   inkscape:pageopacity="0"
   inkscape:pageshadow="2"
   inkscape:window-width="1853"
   inkscape:window-height="1025"
   id="namedview12"
   showgrid="true"
   inkscape:zoom="0.093123438"
   inkscape:cx="-1655.2793"
   inkscape:cy="-1062.7642"
   inkscape:window-x="67"
   inkscape:window-y="27"
   inkscape:window-maximized="1"
   inkscape:current-layer="svg10"><inkscape:grid
     type="xygrid"
     id="grid840" /></sodipodi:namedview>
<path
   style="fill:#979797"
   inkscape:connector-curvature="0"
   id="path2"
   d="M 546,1244.003 V 672 l -148.501,58.3 -20.9,-143 190.301,-88 h 163.901 v 744.703 z" />
<path
   fill="#979797"
   d="M1730.05,140.47l6.931,1461.989c0,51.721-48.051,93.561-107.431,93.561l-1486.03,6.932c-51.72,0-93.569-48.04-93.569-107.42  L43.02,133.54c0-51.721,48.05-93.561,107.431-93.561L1636.48,33.04C1688.199,33.04,1730.05,81.09,1730.05,140.47z M1572.59,1462.909  L1566.97,278.7c0-48.101-33.891-87.011-75.79-87.011L287.49,197.3c-48.09,0-87.01,33.9-87.01,75.79l5.61,1184.21  c0,48.09,33.899,87.01,75.79,87.01l1203.689-5.608C1533.67,1538.699,1572.59,1504.8,1572.59,1462.909z"
   id="path8" />
<g
   transform="translate(206.396,9.301)"
   enable-background="new    "
   id="g915"><path
     style="fill:#979797"
     inkscape:connector-curvature="0"
     d="M 646,1237 V 1106.1 L 902.302,849.798 c 49.5,-50.6 74.8,-85.8 74.8,-135.301 0,-50.6 -35.199,-79.2 -95.7,-79.2 -66,0 -133.101,29.7 -196.901,75.9 l -22,-156.201 c 63.8,-42.9 141.901,-73.7 246.402,-73.7 152.9,0 247.501,80.3 247.501,213.401 0,101.2 -50.601,167.201 -140.801,253 l -148.501,143.002 h 280.502 l 23.1,146.301 z"
     id="path913" /></g></svg>