<?xml version="1.0" encoding="UTF-8"?>
<svg width="29px" height="35px" viewBox="0 0 29 35" version="1.1" xmlns="http://www.w3.org/2000/svg" xmlns:xlink="http://www.w3.org/1999/xlink">
    <!-- Generator: sketchtool 48.1 (47250) - http://www.bohemiancoding.com/sketch -->
    <title>7624D775-67C1-4AB0-BE54-5798BAC72605</title>
    <desc>Created with sketchtool.</desc>
    <defs></defs>
    <g id="COURSE-1-*-STICKY-UNIT-OPEN" stroke="none" stroke-width="1" fill="none" fill-rule="evenodd" transform="translate(-1283.000000, -32.000000)">
        <path d="M1302.65536,49.5846112 L1301.19934,37.3637779 L1302.71554,37.3637779 C1303.67445,37.3637779 1304.45165,36.5803612 1304.45165,35.6137779 C1304.45165,34.6471946 1303.67445,33.8637779 1302.71554,33.8637779 L1288.82665,33.8637779 C1287.86716,33.8637779 1287.09054,34.6471946 1287.09054,35.6137779 C1287.09054,36.5803612 1287.86716,37.3637779 1288.82665,37.3637779 L1290.34228,37.3637779 L1288.88684,49.5846112 C1286.74911,51.1800279 1285.35443,53.7326946 1285.35443,56.6137779 C1285.35443,57.5803612 1286.13105,58.3637779 1287.09054,58.3637779 L1294.03499,58.3637779 L1294.03499,67.1137779 C1294.03499,68.0809446 1294.81161,68.8637779 1295.7711,68.8637779 C1296.73001,68.8637779 1297.50721,68.0809446 1297.50721,67.1137779 L1297.50721,58.3637779 L1304.45165,58.3637779 C1305.41057,58.3637779 1306.18776,57.5803612 1306.18776,56.6137779 C1306.18776,53.7326946 1304.79251,51.1800279 1302.65536,49.5846112" id="ICONS/PUSHPIN" fill="#FFFFFF" transform="translate(1295.771098, 51.363778) rotate(-330.000000) translate(-1295.771098, -51.363778) "></path>
    </g>
</svg>